<svg xmlns="http://www.w3.org/2000/svg" width="500" height="500" viewBox="0 0 500 500"><g transform="translate(250,243)translate(111.5,37)rotate(0)translate(-111.5,-37)" opacity="1"><path transform="translate(6,0)rotate(0)" d="M41.58 56L23.43 56L23.43 53.20L25.69 53.20L25.69 53.20Q26.26 53.20 26.74 53.09L26.74 53.09L26.74 53.09Q27.23 52.97 27.60 52.61L27.60 52.61L27.60 52.61Q27.97 52.25 28.18 51.59L28.18 51.59L28.18 51.59Q28.39 50.92 28.39 49.79L28.39 49.79L28.39 38.03L14.65 38.03L14.65 49.79L14.65 49.79Q14.65 50.92 14.87 51.59L14.87 51.59L14.87 51.59Q15.09 52.25 15.45 52.61L15.45 52.61L15.45 52.61Q15.81 52.97 16.30 53.09L16.30 53.09L16.30 53.09Q16.78 53.20 17.35 53.20L17.35 53.20L19.61 53.20L19.61 56L1.46 56L1.46 53.20L3.67 53.20L3.67 53.20Q4.23 53.20 4.72 53.09L4.72 53.09L4.72 53.09Q5.21 52.97 5.58 52.61L5.58 52.61L5.58 52.61Q5.95 52.25 6.16 51.59L6.16 51.59L6.16 51.59Q6.36 50.92 6.36 49.79L6.36 49.79L6.36 24.48L6.36 24.48Q6.36 23.43 6.15 22.80L6.15 22.80L6.15 22.80Q5.93 22.17 5.56 21.84L5.56 21.84L5.56 21.84Q5.18 21.51 4.70 21.39L4.70 21.39L4.70 21.39Q4.21 21.28 3.67 21.28L3.67 21.28L1.46 21.28L1.46 18.48L19.61 18.48L19.61 21.28L17.35 21.28L17.35 21.28Q16.78 21.28 16.30 21.39L16.30 21.39L16.30 21.39Q15.81 21.51 15.45 21.87L15.45 21.87L15.45 21.87Q15.09 22.22 14.87 22.89L14.87 22.89L14.87 22.89Q14.65 23.56 14.65 24.69L14.65 24.69L14.65 34.83L28.39 34.83L28.39 24.69L28.39 24.69Q28.39 23.56 28.18 22.89L28.18 22.89L28.18 22.89Q27.97 22.22 27.60 21.87L27.60 21.87L27.60 21.87Q27.23 21.51 26.74 21.39L26.74 21.39L26.74 21.39Q26.26 21.28 25.69 21.28L25.69 21.28L23.43 21.28L23.43 18.48L41.58 18.48L41.58 21.28L39.37 21.28L39.37 21.28Q38.83 21.28 38.34 21.39L38.34 21.39L38.34 21.39Q37.86 21.51 37.48 21.87L37.48 21.87L37.48 21.87Q37.11 22.22 36.91 22.89L36.91 22.89L36.91 22.89Q36.70 23.56 36.70 24.69L36.70 24.69L36.70 50.07L36.70 50.07Q36.70 51.10 36.92 51.73L36.92 51.73L36.92 51.73Q37.14 52.36 37.51 52.68L37.51 52.68L37.51 52.68Q37.88 53.00 38.36 53.10L38.36 53.10L38.36 53.10Q38.83 53.20 39.37 53.20L39.37 53.20L41.58 53.20L41.58 56ZM62.65 56L44.50 56L44.50 53.20L46.71 53.20L46.71 53.20Q47.30 53.20 47.79 53.09L47.79 53.09L47.79 53.09Q48.28 52.97 48.64 52.61L48.64 52.61L48.64 52.61Q48.99 52.25 49.20 51.59L49.20 51.59L49.20 51.59Q49.41 50.92 49.41 49.79L49.41 49.79L49.41 24.69L49.41 24.69Q49.41 23.56 49.20 22.89L49.20 22.89L49.20 22.89Q48.99 22.22 48.64 21.87L48.64 21.87L48.64 21.87Q48.28 21.51 47.79 21.39L47.79 21.39L47.79 21.39Q47.30 21.28 46.71 21.28L46.71 21.28L44.50 21.28L44.50 18.48L62.65 18.48L62.65 21.28L60.44 21.28L60.44 21.28Q59.88 21.28 59.38 21.39L59.38 21.39L59.38 21.39Q58.88 21.51 58.52 21.87L58.52 21.87L58.52 21.87Q58.16 22.22 57.95 22.89L57.95 22.89L57.95 22.89Q57.75 23.56 57.75 24.69L57.75 24.69L57.75 49.79L57.75 49.79Q57.75 50.92 57.95 51.59L57.95 51.59L57.95 51.59Q58.16 52.25 58.52 52.61L58.52 52.61L58.52 52.61Q58.88 52.97 59.38 53.09L59.38 53.09L59.38 53.09Q59.88 53.20 60.44 53.20L60.44 53.20L62.65 53.20L62.65 56ZM101.53 36.55L101.53 36.55L101.53 36.55Q101.53 40.86 100.35 44.44L100.35 44.44L100.35 44.44Q99.17 48.02 96.82 50.58L96.82 50.58L96.82 50.58Q94.47 53.15 91.00 54.58L91.00 54.58L91.00 54.58Q87.52 56 82.92 56L82.92 56L65.57 56L65.57 53.20L67.78 53.20L67.78 53.20Q68.37 53.20 68.86 53.09L68.86 53.09L68.86 53.09Q69.35 52.97 69.71 52.61L69.71 52.61L69.71 52.61Q70.07 52.25 70.27 51.59L70.27 51.59L70.27 51.59Q70.48 50.92 70.48 49.79L70.48 49.79L70.48 24.46L70.48 24.46Q70.48 23.41 70.27 22.78L70.27 22.78L70.27 22.78Q70.07 22.15 69.69 21.81L69.69 21.81L69.69 21.81Q69.32 21.48 68.83 21.37L68.83 21.37L68.83 21.37Q68.35 21.25 67.78 21.25L67.78 21.25L65.57 21.25L65.57 18.48L82.92 18.48L82.92 18.48Q87.29 18.48 90.74 19.62L90.74 19.62L90.74 19.62Q94.19 20.76 96.59 23.03L96.59 23.03L96.59 23.03Q98.99 25.30 100.26 28.69L100.26 28.69L100.26 28.69Q101.53 32.08 101.53 36.55ZM92.65 36.55L92.65 36.55L92.65 36.55Q92.65 29.03 89.89 25.36L89.89 25.36L89.89 25.36Q87.13 21.69 81.77 21.69L81.77 21.69L78.77 21.69L78.77 52.74L81.72 52.74L81.72 52.74Q84.41 52.74 86.47 51.62L86.47 51.62L86.47 51.62Q88.52 50.51 89.89 48.40L89.89 48.40L89.89 48.40Q91.26 46.30 91.96 43.31L91.96 43.31L91.96 43.31Q92.65 40.32 92.65 36.55ZM119.14 37.98L119.14 52.79L129.66 52.79L129.66 52.79Q130.46 52.79 131.02 52.50L131.02 52.50L131.02 52.50Q131.58 52.20 132.00 51.66L132.00 51.66L132.00 51.66Q132.41 51.12 132.65 50.39L132.65 50.39L132.65 50.39Q132.89 49.66 133.02 48.79L133.02 48.79L133.43 46.32L137.08 46.32L136.69 56L105.89 56L105.89 53.20L108.10 53.20L108.10 53.20Q108.67 53.20 109.15 53.10L109.15 53.10L109.15 53.10Q109.64 53.00 110.01 52.68L110.01 52.68L110.01 52.68Q110.39 52.36 110.59 51.73L110.59 51.73L110.59 51.73Q110.80 51.10 110.80 50.07L110.80 50.07L110.80 24.66L110.80 24.66Q110.80 23.53 110.59 22.87L110.59 22.87L110.59 22.87Q110.39 22.20 110.03 21.84L110.03 21.84L110.03 21.84Q109.67 21.48 109.18 21.37L109.18 21.37L109.18 21.37Q108.69 21.25 108.10 21.25L108.10 21.25L105.89 21.25L105.89 18.48L135.08 18.48L135.28 28.15L131.61 28.15L131.35 25.66L131.35 25.66Q131.15 23.74 130.38 22.71L130.38 22.71L130.38 22.71Q129.61 21.69 127.99 21.69L127.99 21.69L119.14 21.69L119.14 34.83L131.61 34.83L131.61 37.98L119.14 37.98ZM166.77 56L147.37 56L147.37 53.20L149.83 53.20L149.83 53.20Q150.47 53.20 151.03 53.13L151.03 53.13L151.03 53.13Q151.58 53.05 151.99 52.73L151.99 52.73L151.99 52.73Q152.40 52.41 152.64 51.77L152.64 51.77L152.64 51.77Q152.89 51.12 152.89 50.02L152.89 50.02L152.89 42.71L143.16 24.05L143.16 24.05Q142.77 23.28 142.43 22.74L142.43 22.74L142.43 22.74Q142.08 22.20 141.67 21.88L141.67 21.88L141.67 21.88Q141.26 21.56 140.73 21.40L140.73 21.40L140.73 21.40Q140.21 21.25 139.44 21.25L139.44 21.25L138.75 21.25L138.75 18.48L156.35 18.48L156.35 21.25L155.45 21.25L155.45 21.25Q153.86 21.25 153.08 21.89L153.08 21.89L153.08 21.89Q152.30 22.53 152.30 23.61L152.30 23.61L152.30 23.61Q152.30 24.28 152.54 25.06L152.54 25.06L152.54 25.06Q152.78 25.84 153.09 26.51L153.09 26.51L156.99 34.24L156.99 34.24Q157.81 35.90 158.34 37.19L158.34 37.19L158.34 37.19Q158.87 38.47 159.30 39.70L159.30 39.70L159.30 39.70Q159.84 38.32 160.55 36.69L160.55 36.69L160.55 36.69Q161.25 35.06 162.13 33.29L162.13 33.29L165.18 27.00L165.18 27.00Q165.74 25.84 165.91 25.06L165.91 25.06L165.91 25.06Q166.08 24.28 166.08 23.84L166.08 23.84L166.08 23.84Q166.08 22.48 165.22 21.87L165.22 21.87L165.22 21.87Q164.36 21.25 162.61 21.25L162.61 21.25L161.41 21.25L161.41 18.48L175.16 18.48L175.16 21.25L174.16 21.25L174.16 21.25Q173.50 21.25 173.02 21.43L173.02 21.43L173.02 21.43Q172.55 21.61 172.12 22.07L172.12 22.07L172.12 22.07Q171.70 22.53 171.25 23.33L171.25 23.33L171.25 23.33Q170.80 24.12 170.18 25.36L170.18 25.36L161.25 42.76L161.25 49.94L161.25 49.94Q161.25 51.10 161.48 51.74L161.48 51.74L161.48 51.74Q161.72 52.38 162.11 52.71L162.11 52.71L162.11 52.71Q162.51 53.05 163.04 53.13L163.04 53.13L163.04 53.13Q163.56 53.20 164.18 53.20L164.18 53.20L166.77 53.20L166.77 56ZM199.39 43.66L186.61 43.66L185.10 48.17L185.10 48.17Q184.89 48.81 184.67 49.67L184.67 49.67L184.67 49.67Q184.45 50.53 184.45 51.17L184.45 51.17L184.45 51.17Q184.45 51.69 184.66 52.07L184.66 52.07L184.66 52.07Q184.87 52.46 185.20 52.70L185.20 52.70L185.20 52.70Q185.53 52.95 185.96 53.07L185.96 53.07L185.96 53.07Q186.38 53.20 186.84 53.20L186.84 53.20L189.05 53.20L189.05 56L175.37 56L175.37 53.20L176.01 53.20L176.01 53.20Q176.70 53.20 177.28 53.05L177.28 53.05L177.28 53.05Q177.86 52.89 178.36 52.47L178.36 52.47L178.36 52.47Q178.86 52.05 179.31 51.30L179.31 51.30L179.31 51.30Q179.76 50.56 180.22 49.38L180.22 49.38L191.62 18.48L198.83 18.48L209.81 49.43L209.81 49.43Q210.20 50.53 210.62 51.26L210.62 51.26L210.62 51.26Q211.04 52.00 211.54 52.42L211.54 52.42L211.54 52.42Q212.04 52.84 212.61 53.02L212.61 53.02L212.61 53.02Q213.17 53.20 213.79 53.20L213.79 53.20L214.74 53.20L214.74 56L197.39 56L197.39 53.20L199.44 53.20L199.44 53.20Q199.83 53.20 200.24 53.09L200.24 53.09L200.24 53.09Q200.65 52.97 200.97 52.73L200.97 52.73L200.97 52.73Q201.29 52.48 201.50 52.10L201.50 52.10L201.50 52.10Q201.70 51.71 201.70 51.17L201.70 51.17L201.70 51.17Q201.70 50.53 201.55 49.94L201.55 49.94L201.55 49.94Q201.39 49.35 201.24 48.92L201.24 48.92L199.39 43.66ZM198.34 40.45L195.57 31.82L195.57 31.82Q195.29 30.93 194.99 29.94L194.99 29.94L194.99 29.94Q194.69 28.95 194.40 27.92L194.40 27.92L194.40 27.92Q194.10 26.90 193.84 25.88L193.84 25.88L193.84 25.88Q193.57 24.87 193.36 23.94L193.36 23.94L193.36 23.94Q193.13 24.74 192.82 25.69L192.82 25.69L192.82 25.69Q192.51 26.64 192.17 27.64L192.17 27.64L192.17 27.64Q191.82 28.64 191.47 29.64L191.47 29.64L191.47 29.64Q191.13 30.64 190.82 31.57L190.82 31.57L187.71 40.45L198.34 40.45Z" fill="#191919"/></g><g transform="translate(238,319)translate(123.5,16.5)rotate(0)translate(-123.5,-16.5)" opacity="1"><path transform="translate(6,0)rotate(0)" d="M9.15 9.73L5.38 9.73L5.38 16.38L10.93 16.38L10.93 17.50L5.38 17.50L5.38 22.38L5.38 22.38Q5.38 22.92 5.53 23.25L5.53 23.25L5.53 23.25Q5.68 23.57 5.94 23.75L5.94 23.75L5.94 23.75Q6.19 23.92 6.54 23.98L6.54 23.98L6.54 23.98Q6.88 24.03 7.27 24.03L7.27 24.03L8.03 24.03L8.03 25L0.88 25L0.88 24.03L1.17 24.03L1.17 24.03Q1.55 24.03 1.89 23.98L1.89 23.98L1.89 23.98Q2.23 23.93 2.49 23.78L2.49 23.78L2.49 23.78Q2.75 23.62 2.90 23.31L2.90 23.31L2.90 23.31Q3.05 23.00 3.05 22.50L3.05 22.50L3.05 11.11L3.05 11.11Q3.05 10.60 2.90 10.29L2.90 10.29L2.90 10.29Q2.75 9.98 2.49 9.82L2.49 9.82L2.49 9.82Q2.23 9.65 1.89 9.60L1.89 9.60L1.89 9.60Q1.55 9.55 1.17 9.55L1.17 9.55L0.88 9.55L0.88 8.58L12.47 8.58L12.58 12.60L11.39 12.60L11.28 11.61L11.28 11.61Q11.23 11.22 11.10 10.88L11.10 10.88L11.10 10.88Q10.96 10.54 10.71 10.28L10.71 10.28L10.71 10.28Q10.46 10.03 10.07 9.88L10.07 9.88L10.07 9.88Q9.69 9.73 9.15 9.73L9.15 9.73ZM33.92 16.77L33.92 16.77L33.92 16.77Q33.92 18.67 33.45 20.23L33.45 20.23L33.45 20.23Q32.98 21.79 32.06 22.90L32.06 22.90L32.06 22.90Q31.14 24.01 29.79 24.62L29.79 24.62L29.79 24.62Q28.44 25.22 26.70 25.22L26.70 25.22L26.70 25.22Q24.87 25.22 23.51 24.62L23.51 24.62L23.51 24.62Q22.15 24.01 21.25 22.90L21.25 22.90L21.25 22.90Q20.36 21.79 19.91 20.22L19.91 20.22L19.91 20.22Q19.46 18.65 19.46 16.75L19.46 16.75L19.46 16.75Q19.46 14.84 19.91 13.28L19.91 13.28L19.91 13.28Q20.36 11.73 21.25 10.63L21.25 10.63L21.25 10.63Q22.15 9.52 23.52 8.92L23.52 8.92L23.52 8.92Q24.89 8.32 26.72 8.32L26.72 8.32L26.72 8.32Q28.46 8.32 29.80 8.92L29.80 8.92L29.80 8.92Q31.14 9.52 32.06 10.63L32.06 10.63L32.06 10.63Q32.98 11.74 33.45 13.29L33.45 13.29L33.45 13.29Q33.92 14.85 33.92 16.77ZM22.01 16.77L22.01 16.77L22.01 16.77Q22.01 18.48 22.26 19.82L22.26 19.82L22.26 19.82Q22.51 21.16 23.07 22.09L23.07 22.09L23.07 22.09Q23.64 23.01 24.53 23.50L24.53 23.50L24.53 23.50Q25.42 23.99 26.70 23.99L26.70 23.99L26.70 23.99Q27.98 23.99 28.87 23.50L28.87 23.50L28.87 23.50Q29.77 23.01 30.32 22.09L30.32 22.09L30.32 22.09Q30.88 21.16 31.13 19.82L31.13 19.82L31.13 19.82Q31.37 18.48 31.37 16.77L31.37 16.77L31.37 16.77Q31.37 15.06 31.13 13.72L31.13 13.72L31.13 13.72Q30.88 12.38 30.32 11.46L30.32 11.46L30.32 11.46Q29.77 10.54 28.89 10.05L28.89 10.05L28.89 10.05Q28.00 9.57 26.72 9.57L26.72 9.57L26.72 9.57Q25.44 9.57 24.55 10.05L24.55 10.05L24.55 10.05Q23.65 10.54 23.08 11.46L23.08 11.46L23.08 11.46Q22.51 12.38 22.26 13.72L22.26 13.72L22.26 13.72Q22.01 15.06 22.01 16.77ZM55.59 16.77L55.59 16.77L55.59 16.77Q55.59 18.67 55.12 20.23L55.12 20.23L55.12 20.23Q54.65 21.79 53.73 22.90L53.73 22.90L53.73 22.90Q52.81 24.01 51.46 24.62L51.46 24.62L51.46 24.62Q50.11 25.22 48.37 25.22L48.37 25.22L48.37 25.22Q46.54 25.22 45.18 24.62L45.18 24.62L45.18 24.62Q43.82 24.01 42.93 22.90L42.93 22.90L42.93 22.90Q42.03 21.79 41.58 20.22L41.58 20.22L41.58 20.22Q41.13 18.65 41.13 16.75L41.13 16.75L41.13 16.75Q41.13 14.84 41.58 13.28L41.58 13.28L41.58 13.28Q42.03 11.73 42.93 10.63L42.93 10.63L42.93 10.63Q43.82 9.52 45.19 8.92L45.19 8.92L45.19 8.92Q46.56 8.32 48.39 8.32L48.39 8.32L48.39 8.32Q50.14 8.32 51.47 8.92L51.47 8.92L51.47 8.92Q52.81 9.52 53.73 10.63L53.73 10.63L53.73 10.63Q54.65 11.74 55.12 13.29L55.12 13.29L55.12 13.29Q55.59 14.85 55.59 16.77ZM43.68 16.77L43.68 16.77L43.68 16.77Q43.68 18.48 43.93 19.82L43.93 19.82L43.93 19.82Q44.18 21.16 44.74 22.09L44.74 22.09L44.74 22.09Q45.31 23.01 46.20 23.50L46.20 23.50L46.20 23.50Q47.09 23.99 48.37 23.99L48.37 23.99L48.37 23.99Q49.65 23.99 50.54 23.50L50.54 23.50L50.54 23.50Q51.44 23.01 51.99 22.09L51.99 22.09L51.99 22.09Q52.55 21.16 52.80 19.82L52.80 19.82L52.80 19.82Q53.04 18.48 53.04 16.77L53.04 16.77L53.04 16.77Q53.04 15.06 52.80 13.72L52.80 13.72L52.80 13.72Q52.55 12.38 51.99 11.46L51.99 11.46L51.99 11.46Q51.44 10.54 50.56 10.05L50.56 10.05L50.56 10.05Q49.67 9.57 48.39 9.57L48.39 9.57L48.39 9.57Q47.11 9.57 46.22 10.05L46.22 10.05L46.22 10.05Q45.32 10.54 44.75 11.46L44.75 11.46L44.75 11.46Q44.18 12.38 43.93 13.72L43.93 13.72L43.93 13.72Q43.68 15.06 43.68 16.77ZM76.92 16.77L76.92 16.77L76.92 16.77Q76.92 18.65 76.44 20.18L76.44 20.18L76.44 20.18Q75.97 21.70 75.04 22.77L75.04 22.77L75.04 22.77Q74.11 23.84 72.70 24.42L72.70 24.42L72.70 24.42Q71.30 25 69.42 25L69.42 25L62.38 25L62.38 24.03L62.68 24.03L62.68 24.03Q63.07 24.03 63.41 23.98L63.41 23.98L63.41 23.98Q63.75 23.92 64.01 23.75L64.01 23.75L64.01 23.75Q64.27 23.57 64.42 23.25L64.42 23.25L64.42 23.25Q64.56 22.92 64.56 22.38L64.56 22.38L64.56 11.11L64.56 11.11Q64.56 10.60 64.41 10.29L64.41 10.29L64.41 10.29Q64.26 9.98 64.00 9.82L64.00 9.82L64.00 9.82Q63.74 9.65 63.40 9.60L63.40 9.60L63.40 9.60Q63.06 9.55 62.68 9.55L62.68 9.55L62.38 9.55L62.38 8.58L69.42 8.58L69.42 8.58Q71.20 8.58 72.59 9.13L72.59 9.13L72.59 9.13Q73.98 9.67 74.94 10.71L74.94 10.71L74.94 10.71Q75.90 11.76 76.41 13.29L76.41 13.29L76.41 13.29Q76.92 14.81 76.92 16.77ZM66.89 23.83L68.89 23.83L68.89 23.83Q70.26 23.83 71.28 23.37L71.28 23.37L71.28 23.37Q72.31 22.90 73.00 22.00L73.00 22.00L73.00 22.00Q73.68 21.10 74.02 19.79L74.02 19.79L74.02 19.79Q74.37 18.48 74.37 16.77L74.37 16.77L74.37 16.77Q74.37 13.34 73.00 11.53L73.00 11.53L73.00 11.53Q71.64 9.73 68.91 9.73L68.91 9.73L66.89 9.73L66.89 23.83ZM102.10 8.35L102.10 8.35L102.10 8.35Q103.28 8.35 104.15 8.54L104.15 8.54L104.15 8.54Q105.02 8.74 105.59 9.09L105.59 9.09L105.59 9.09Q106.17 9.43 106.46 9.91L106.46 9.91L106.46 9.91Q106.75 10.38 106.75 10.93L106.75 10.93L106.75 10.93Q106.75 11.30 106.59 11.60L106.59 11.60L106.59 11.60Q106.44 11.89 106.17 12.10L106.17 12.10L106.17 12.10Q105.90 12.31 105.54 12.42L105.54 12.42L105.54 12.42Q105.17 12.53 104.75 12.53L104.75 12.53L104.75 12.53Q104.75 12.00 104.61 11.47L104.61 11.47L104.61 11.47Q104.47 10.94 104.15 10.52L104.15 10.52L104.15 10.52Q103.83 10.10 103.31 9.83L103.31 9.83L103.31 9.83Q102.80 9.57 102.05 9.57L102.05 9.57L102.05 9.57Q100.75 9.57 99.84 10.05L99.84 10.05L99.84 10.05Q98.93 10.52 98.36 11.44L98.36 11.44L98.36 11.44Q97.78 12.35 97.53 13.70L97.53 13.70L97.53 13.70Q97.27 15.04 97.27 16.77L97.27 16.77L97.27 16.77Q97.27 18.31 97.54 19.59L97.54 19.59L97.54 19.59Q97.81 20.87 98.39 21.78L98.39 21.78L98.39 21.78Q98.97 22.70 99.88 23.20L99.88 23.20L99.88 23.20Q100.78 23.71 102.05 23.71L102.05 23.71L102.05 23.71Q102.89 23.71 103.54 23.55L103.54 23.55L103.54 23.55Q104.19 23.38 104.68 23.11L104.68 23.11L104.68 23.11Q105.17 22.84 105.55 22.49L105.55 22.49L105.55 22.49Q105.93 22.14 106.22 21.75L106.22 21.75L106.22 21.75Q106.41 21.88 106.53 22.09L106.53 22.09L106.53 22.09Q106.66 22.30 106.66 22.65L106.66 22.65L106.66 22.65Q106.66 23.09 106.36 23.55L106.36 23.55L106.36 23.55Q106.06 24.00 105.45 24.37L105.45 24.37L105.45 24.37Q104.85 24.74 103.92 24.98L103.92 24.98L103.92 24.98Q102.98 25.22 101.70 25.22L101.70 25.22L101.70 25.22Q99.98 25.22 98.68 24.62L98.68 24.62L98.68 24.62Q97.38 24.01 96.50 22.90L96.50 22.90L96.50 22.90Q95.62 21.79 95.17 20.23L95.17 20.23L95.17 20.23Q94.72 18.67 94.72 16.77L94.72 16.77L94.72 16.77Q94.72 14.90 95.19 13.35L95.19 13.35L95.19 13.35Q95.66 11.80 96.59 10.69L96.59 10.69L96.59 10.69Q97.51 9.58 98.90 8.96L98.90 8.96L98.90 8.96Q100.28 8.35 102.10 8.35ZM122.81 19.51L116.77 19.51L115.89 21.92L115.89 21.92Q115.79 22.19 115.74 22.46L115.74 22.46L115.74 22.46Q115.68 22.72 115.68 22.91L115.68 22.91L115.68 22.91Q115.68 23.50 116.06 23.76L116.06 23.76L116.06 23.76Q116.43 24.03 117.21 24.03L117.21 24.03L117.74 24.03L117.74 25L112.12 25L112.12 24.03L112.56 24.03L112.56 24.03Q112.90 24.03 113.13 23.96L113.13 23.96L113.13 23.96Q113.37 23.89 113.56 23.69L113.56 23.69L113.56 23.69Q113.75 23.48 113.92 23.14L113.92 23.14L113.92 23.14Q114.10 22.79 114.31 22.24L114.31 22.24L119.41 8.58L121.21 8.58L126.41 22.81L126.41 22.81Q126.54 23.17 126.68 23.41L126.68 23.41L126.68 23.41Q126.82 23.64 127.01 23.78L127.01 23.78L127.01 23.78Q127.20 23.92 127.45 23.98L127.45 23.98L127.45 23.98Q127.70 24.03 128.03 24.03L128.03 24.03L128.34 24.03L128.34 25L122.01 25L122.01 24.03L122.54 24.03L122.54 24.03Q123.92 24.03 123.92 22.93L123.92 22.93L123.92 22.93Q123.92 22.74 123.87 22.54L123.87 22.54L123.87 22.54Q123.82 22.34 123.73 22.08L123.73 22.08L122.81 19.51ZM122.40 18.35L120.97 14.33L120.97 14.33Q120.61 13.31 120.31 12.42L120.31 12.42L120.31 12.42Q120.02 11.52 119.82 10.69L119.82 10.69L119.82 10.69Q119.75 11.11 119.64 11.50L119.64 11.50L119.64 11.50Q119.53 11.88 119.41 12.29L119.41 12.29L119.41 12.29Q119.29 12.69 119.13 13.14L119.13 13.14L119.13 13.14Q118.97 13.58 118.77 14.12L118.77 14.12L117.21 18.35L122.40 18.35ZM153.64 25L147.51 25L147.51 24.03L147.59 24.03L147.59 24.03Q147.96 24.03 148.26 23.98L148.26 23.98L148.26 23.98Q148.56 23.93 148.77 23.78L148.77 23.78L148.77 23.78Q148.97 23.63 149.10 23.34L149.10 23.34L149.10 23.34Q149.22 23.06 149.24 22.59L149.24 22.59L149.24 10.30L143.98 25L142.73 25L137.40 10.34L137.40 22.38L137.40 22.38Q137.40 22.92 137.51 23.25L137.51 23.25L137.51 23.25Q137.62 23.57 137.84 23.75L137.84 23.75L137.84 23.75Q138.06 23.92 138.37 23.98L138.37 23.98L138.37 23.98Q138.68 24.03 139.06 24.03L139.06 24.03L139.13 24.03L139.13 25L133.81 25L133.81 24.03L134.11 24.03L134.11 24.03Q134.49 24.03 134.83 23.98L134.83 23.98L134.83 23.98Q135.17 23.93 135.43 23.78L135.43 23.78L135.43 23.78Q135.69 23.62 135.84 23.31L135.84 23.31L135.84 23.31Q135.99 23.00 135.99 22.50L135.99 22.50L135.99 11.11L135.99 11.11Q135.99 10.60 135.84 10.29L135.84 10.29L135.84 10.29Q135.69 9.98 135.43 9.82L135.43 9.82L135.43 9.82Q135.17 9.65 134.83 9.60L134.83 9.60L134.83 9.60Q134.49 9.55 134.11 9.55L134.11 9.55L133.81 9.55L133.81 8.58L139.06 8.58L143.82 21.73L148.54 8.58L153.64 8.58L153.64 9.55L153.34 9.55L153.34 9.55Q152.95 9.55 152.61 9.60L152.61 9.60L152.61 9.60Q152.26 9.66 152.01 9.83L152.01 9.83L152.01 9.83Q151.75 10.01 151.60 10.33L151.60 10.33L151.60 10.33Q151.46 10.66 151.46 11.20L151.46 11.20L151.46 22.38L151.46 22.38Q151.46 22.92 151.60 23.25L151.60 23.25L151.60 23.25Q151.75 23.57 152.01 23.75L152.01 23.75L152.01 23.75Q152.26 23.92 152.61 23.98L152.61 23.98L152.61 23.98Q152.95 24.03 153.34 24.03L153.34 24.03L153.64 24.03L153.64 25ZM167.14 25L159.99 25L159.99 24.03L160.28 24.03L160.28 24.03Q160.67 24.03 161.01 23.98L161.01 23.98L161.01 23.98Q161.36 23.92 161.62 23.75L161.62 23.75L161.62 23.75Q161.87 23.57 162.02 23.25L162.02 23.25L162.02 23.25Q162.17 22.92 162.17 22.38L162.17 22.38L162.17 11.11L162.17 11.11Q162.17 10.60 162.01 10.29L162.01 10.29L162.01 10.29Q161.86 9.98 161.60 9.82L161.60 9.82L161.60 9.82Q161.35 9.65 161.00 9.60L161.00 9.60L161.00 9.60Q160.66 9.55 160.28 9.55L160.28 9.55L159.99 9.55L159.99 8.58L166.44 8.58L166.44 8.58Q167.89 8.58 168.96 8.91L168.96 8.91L168.96 8.91Q170.03 9.24 170.72 9.87L170.72 9.87L170.72 9.87Q171.42 10.49 171.76 11.38L171.76 11.38L171.76 11.38Q172.10 12.26 172.10 13.39L172.10 13.39L172.10 13.39Q172.10 14.41 171.78 15.35L171.78 15.35L171.78 15.35Q171.46 16.30 170.73 17.02L170.73 17.02L170.73 17.02Q170.00 17.75 168.83 18.18L168.83 18.18L168.83 18.18Q167.65 18.61 165.94 18.61L165.94 18.61L164.49 18.61L164.49 22.50L164.49 22.50Q164.49 23.00 164.64 23.31L164.64 23.31L164.64 23.31Q164.79 23.62 165.05 23.78L165.05 23.78L165.05 23.78Q165.31 23.93 165.65 23.98L165.65 23.98L165.65 23.98Q166.00 24.03 166.38 24.03L166.38 24.03L167.14 24.03L167.14 25ZM164.49 9.68L164.49 17.52L165.71 17.52L165.71 17.52Q166.76 17.52 167.50 17.30L167.50 17.30L167.50 17.30Q168.24 17.08 168.71 16.59L168.71 16.59L168.71 16.59Q169.18 16.11 169.40 15.34L169.40 15.34L169.40 15.34Q169.62 14.57 169.62 13.48L169.62 13.48L169.62 13.48Q169.62 12.51 169.43 11.80L169.43 11.80L169.43 11.80Q169.24 11.09 168.81 10.61L168.81 10.61L168.81 10.61Q168.39 10.14 167.71 9.91L167.71 9.91L167.71 9.91Q167.03 9.68 166.05 9.68L166.05 9.68L164.49 9.68ZM188.29 19.51L182.25 19.51L181.38 21.92L181.38 21.92Q181.28 22.19 181.22 22.46L181.22 22.46L181.22 22.46Q181.16 22.72 181.16 22.91L181.16 22.91L181.16 22.91Q181.16 23.50 181.54 23.76L181.54 23.76L181.54 23.76Q181.92 24.03 182.69 24.03L182.69 24.03L183.22 24.03L183.22 25L177.60 25L177.60 24.03L178.04 24.03L178.04 24.03Q178.38 24.03 178.61 23.96L178.61 23.96L178.61 23.96Q178.85 23.89 179.04 23.69L179.04 23.69L179.04 23.69Q179.23 23.48 179.41 23.14L179.41 23.14L179.41 23.14Q179.58 22.79 179.79 22.24L179.79 22.24L184.89 8.58L186.69 8.58L191.89 22.81L191.89 22.81Q192.02 23.17 192.16 23.41L192.16 23.41L192.16 23.41Q192.30 23.64 192.49 23.78L192.49 23.78L192.49 23.78Q192.69 23.92 192.93 23.98L192.93 23.98L192.93 23.98Q193.18 24.03 193.52 24.03L193.52 24.03L193.82 24.03L193.82 25L187.50 25L187.50 24.03L188.02 24.03L188.02 24.03Q189.41 24.03 189.41 22.93L189.41 22.93L189.41 22.93Q189.41 22.74 189.36 22.54L189.36 22.54L189.36 22.54Q189.31 22.34 189.22 22.08L189.22 22.08L188.29 19.51ZM187.88 18.35L186.45 14.33L186.45 14.33Q186.09 13.31 185.80 12.42L185.80 12.42L185.80 12.42Q185.50 11.52 185.31 10.69L185.31 10.69L185.31 10.69Q185.23 11.11 185.12 11.50L185.12 11.50L185.12 11.50Q185.02 11.88 184.89 12.29L184.89 12.29L184.89 12.29Q184.77 12.69 184.61 13.14L184.61 13.14L184.61 13.14Q184.45 13.58 184.25 14.12L184.25 14.12L182.69 18.35L187.88 18.35ZM213.14 25L211.50 25L202.88 11.75L202.88 22.38L202.88 22.38Q202.88 22.92 203.03 23.25L203.03 23.25L203.03 23.25Q203.18 23.57 203.43 23.75L203.43 23.75L203.43 23.75Q203.69 23.92 204.04 23.98L204.04 23.98L204.04 23.98Q204.38 24.03 204.77 24.03L204.77 24.03L205.07 24.03L205.07 25L199.30 25L199.30 24.03L199.59 24.03L199.59 24.03Q199.98 24.03 200.32 23.98L200.32 23.98L200.32 23.98Q200.67 23.92 200.92 23.75L200.92 23.75L200.92 23.75Q201.18 23.57 201.33 23.25L201.33 23.25L201.33 23.25Q201.47 22.92 201.47 22.38L201.47 22.38L201.47 11.11L201.47 11.11Q201.47 10.60 201.32 10.29L201.32 10.29L201.32 10.29Q201.17 9.98 200.91 9.82L200.91 9.82L200.91 9.82Q200.65 9.65 200.31 9.60L200.31 9.60L200.31 9.60Q199.97 9.55 199.59 9.55L199.59 9.55L199.30 9.55L199.30 8.58L203.51 8.58L211.74 21.29L211.74 11.11L211.74 11.11Q211.74 10.60 211.59 10.29L211.59 10.29L211.59 10.29Q211.44 9.98 211.18 9.82L211.18 9.82L211.18 9.82Q210.92 9.65 210.58 9.60L210.58 9.60L210.58 9.60Q210.23 9.55 209.85 9.55L209.85 9.55L209.55 9.55L209.55 8.58L215.32 8.58L215.32 9.55L215.03 9.55L215.03 9.55Q214.64 9.55 214.29 9.60L214.29 9.60L214.29 9.60Q213.95 9.66 213.69 9.83L213.69 9.83L213.69 9.83Q213.44 10.01 213.29 10.33L213.29 10.33L213.29 10.33Q213.14 10.66 213.14 11.20L213.14 11.20L213.14 25ZM231.39 25L224.23 25L224.23 24.03L224.76 24.03L224.76 24.03Q225.14 24.03 225.49 23.98L225.49 23.98L225.49 23.98Q225.83 23.93 226.09 23.78L226.09 23.78L226.09 23.78Q226.35 23.62 226.50 23.31L226.50 23.31L226.50 23.31Q226.65 23.00 226.65 22.50L226.65 22.50L226.65 18.15L222.39 10.76L222.39 10.76Q222.20 10.43 222.03 10.20L222.03 10.20L222.03 10.20Q221.86 9.97 221.68 9.83L221.68 9.83L221.68 9.83Q221.49 9.68 221.27 9.61L221.27 9.61L221.27 9.61Q221.04 9.55 220.75 9.55L220.75 9.55L220.46 9.55L220.46 8.58L226.78 8.58L226.78 9.55L225.93 9.55L225.93 9.55Q225.62 9.55 225.42 9.60L225.42 9.60L225.42 9.60Q225.22 9.66 225.11 9.76L225.11 9.76L225.11 9.76Q225.00 9.86 224.96 10.00L224.96 10.00L224.96 10.00Q224.92 10.13 224.92 10.28L224.92 10.28L224.92 10.28Q224.92 10.60 225.06 10.93L225.06 10.93L225.06 10.93Q225.20 11.25 225.33 11.50L225.33 11.50L227.03 14.58L227.03 14.58Q227.43 15.29 227.72 15.98L227.72 15.98L227.72 15.98Q228.00 16.67 228.19 17.21L228.19 17.21L228.19 17.21Q228.29 16.96 228.44 16.66L228.44 16.66L228.44 16.66Q228.59 16.35 228.78 16.01L228.78 16.01L228.78 16.01Q228.96 15.67 229.16 15.30L229.16 15.30L229.16 15.30Q229.37 14.94 229.57 14.58L229.57 14.58L231.04 11.94L231.04 11.94Q231.26 11.55 231.36 11.19L231.36 11.19L231.36 11.19Q231.46 10.84 231.46 10.56L231.46 10.56L231.46 10.56Q231.46 10.05 231.10 9.80L231.10 9.80L231.10 9.80Q230.74 9.55 230.07 9.55L230.07 9.55L229.40 9.55L229.40 8.58L235.02 8.58L235.02 9.55L234.75 9.55L234.75 9.55Q234.50 9.55 234.28 9.63L234.28 9.63L234.28 9.63Q234.06 9.72 233.84 9.92L233.84 9.92L233.84 9.92Q233.61 10.13 233.37 10.47L233.37 10.47L233.37 10.47Q233.13 10.82 232.84 11.33L232.84 11.33L228.97 18.15L228.97 22.38L228.97 22.38Q228.97 22.92 229.12 23.25L229.12 23.25L229.12 23.25Q229.27 23.57 229.52 23.75L229.52 23.75L229.52 23.75Q229.78 23.92 230.12 23.98L230.12 23.98L230.12 23.98Q230.47 24.03 230.85 24.03L230.85 24.03L231.39 24.03L231.39 25Z" fill="#969696"/></g><g transform="translate(139,205)translate(47,47)rotate(0)translate(-47,-47) scale(0.9400047000235001,0.9400047000235001)" opacity="1"><defs class="defs"/><path transform="translate(1.6431300764452317e-14,0.011000000000000565)" d="M96.74,11.197c-1.402,-1.401 -3.148,-2.396 -5.048,-2.894c-0.498,-1.9 -1.493,-3.646 -2.895,-5.047c-2.104,-2.106 -4.905,-3.267 -7.882,-3.267c-2.979,0 -5.778,1.161 -7.884,3.267c-2.106,2.105 -3.266,4.904 -3.265,7.882c0,2.138 0.597,4.183 1.712,5.945l-5.891,5.892c-2.201,-0.833 -4.552,-1.287 -6.977,-1.287c-5.261,0 -10.208,2.049 -13.929,5.77l-10.202,10.205c-1.077,-0.112 -2.161,-0.168 -3.24,-0.168c-8.351,0 -16.198,3.25 -22.098,9.15c-12.188,12.188 -12.188,32.021 0,44.209c5.905,5.905 13.755,9.157 22.105,9.157c8.351,0 16.201,-3.252 22.105,-9.157c6.667,-6.667 9.944,-16.008 8.981,-25.337l10.206,-10.206c3.72,-3.719 5.769,-8.666 5.769,-13.927c0,-2.425 -0.454,-4.776 -1.288,-6.979l5.892,-5.891c1.764,1.116 3.809,1.714 5.946,1.714c2.979,0 5.777,-1.16 7.883,-3.266c4.346,-4.345 4.346,-11.418 0,-15.765zM93.251,23.474c-1.174,1.174 -2.733,1.82 -4.394,1.82c-1.659,0 -3.221,-0.647 -4.395,-1.82c-0.964,-0.964 -2.525,-0.964 -3.489,0l-6.4,6.4c-0.612,-0.847 -1.279,-1.663 -2.033,-2.417c-0.755,-0.754 -1.571,-1.42 -2.419,-2.035l6.401,-6.401c0.463,-0.462 0.723,-1.09 0.723,-1.745c0,-0.654 -0.26,-1.283 -0.723,-1.746c-1.174,-1.173 -1.819,-2.732 -1.819,-4.392c0,-1.66 0.646,-3.22 1.819,-4.393c1.173,-1.174 2.733,-1.821 4.394,-1.821c1.658,0 3.219,0.646 4.393,1.821c1.038,1.038 1.676,2.418 1.795,3.887c0.097,1.206 1.055,2.163 2.261,2.26c1.468,0.118 2.848,0.755 3.886,1.793c2.421,2.424 2.422,6.366 0,8.789z" fill="#D86411" class="fill c1"/></g><g transform="translate(15,210)translate(56.5,37)rotate(62.19791729912765)translate(-56.5,-37) scale(1.2219809965235924,1.2219809965235924)" opacity="1"><defs class="defs"/><path transform="translate(-3.763500000000005,-20.15099999999999)" d="M21.11,48.188c-1.941,0 -3.521,1.58 -3.521,3.521c0,1.941 1.58,3.521 3.521,3.521c1.941,0 3.521,-1.579 3.521,-3.521c0,-1.942 -1.579,-3.521 -3.521,-3.521zM21.11,53.89c-1.203,0 -2.182,-0.979 -2.182,-2.181c0,-1.203 0.979,-2.182 2.182,-2.182c1.203,0 2.181,0.979 2.181,2.182c0.001,1.202 -0.978,2.181 -2.181,2.181zM95.988,70.322c-0.08,-0.065 -8.035,-6.616 -8.005,-15.688c0.03,-9.151 4.501,-14.99 4.547,-15.048c0.18,-0.23 0.188,-0.551 0.023,-0.792c-0.165,-0.241 -0.469,-0.348 -0.747,-0.261c-0.13,0.039 -3.202,0.991 -6.432,3.092c-3.831,2.491 -6.231,5.554 -7.017,8.925c-3.557,-3.656 -16.797,-15.977 -33.656,-15.977c-6.407,0 -11.768,1.267 -13.9,1.852c0.996,-4.813 9.073,-13.804 20.098,-14.837c-1.938,2.327 -3.212,6.802 -3.212,9.763c0,0.37 0.299,0.67 0.669,0.67c0.37,0 0.67,-0.3 0.67,-0.67c0,-3.575 2.097,-9.227 4.162,-9.893c0.313,-0.102 0.507,-0.416 0.456,-0.742c-0.052,-0.325 -0.333,-0.565 -0.662,-0.565c-13.392,0 -23.613,11.46 -23.624,17.196c0,0.214 0.102,0.415 0.274,0.542c0.173,0.126 0.396,0.162 0.601,0.096c0.064,-0.021 6.538,-2.073 14.468,-2.073c19.075,0 33.444,16.357 33.586,16.523c0.175,0.201 0.451,0.279 0.709,0.2c0.255,-0.081 0.438,-0.306 0.464,-0.572c0.643,-6.409 7.476,-10.093 10.86,-11.537c-1.424,2.47 -3.656,7.404 -3.678,14.101c-0.022,6.788 3.959,12.116 6.484,14.811c-4.422,-1.471 -13.025,-5.235 -13.65,-12.388c-0.023,-0.26 -0.195,-0.483 -0.44,-0.571c-0.248,-0.091 -0.521,-0.026 -0.704,0.159c-0.102,0.104 -10.32,10.39 -21.035,13.822c-0.353,0.112 -0.547,0.489 -0.434,0.842c0.091,0.284 0.354,0.465 0.638,0.465c0.067,0 0.136,-0.01 0.204,-0.031c9.237,-2.958 17.834,-10.581 20.639,-13.24c0.846,3.867 3.883,7.271 8.865,9.904c4.11,2.173 8.047,3.059 8.212,3.096c0.304,0.065 0.613,-0.084 0.748,-0.363c0.136,-0.279 0.061,-0.615 -0.181,-0.811zM64.887,77.521c-7.879,-3.291 -12.963,-9.521 -13.267,-16.263c-0.011,-0.231 -0.141,-0.442 -0.345,-0.556c-0.202,-0.111 -0.45,-0.112 -0.653,0.003c-3.524,1.987 -5.627,5.182 -5.627,8.547c0,0.37 0.3,0.67 0.669,0.67c0.37,0 0.67,-0.3 0.67,-0.67c0,-2.624 1.458,-5.064 4.038,-6.817c0.744,6.354 5.354,12.147 12.384,15.591c-1.272,0.32 -2.603,0.483 -3.972,0.483c-4.896,0 -9.367,-2.168 -11.392,-5.522c-0.129,-0.214 -0.372,-0.336 -0.614,-0.322c-1.725,0.104 -3.071,0.151 -4.367,0.151c-5.468,0 -10.752,-0.884 -15.725,-2.627c3.495,-4.385 5.41,-9.832 5.41,-15.444c0,-5.931 -2.137,-11.681 -6.017,-16.189c-0.183,-0.213 -0.479,-0.289 -0.742,-0.19c-14.193,5.304 -21.171,15.572 -21.461,16.006c-0.15,0.226 -0.15,0.519 0,0.744c0.08,0.119 1.997,2.964 5.853,6.463c3.211,2.911 6.775,5.378 10.593,7.332c0.328,0.17 0.732,0.038 0.901,-0.29c0.168,-0.33 0.039,-0.733 -0.291,-0.901c-3.712,-1.901 -7.179,-4.301 -10.303,-7.133c-2.933,-2.661 -4.732,-4.969 -5.374,-5.843c1.378,-1.869 8.108,-10.328 20.11,-14.958c3.48,4.21 5.391,9.503 5.391,14.958c0,5.613 -2.024,11.051 -5.701,15.312c-0.143,0.166 -0.196,0.392 -0.142,0.604c0.054,0.211 0.209,0.384 0.414,0.461c5.38,2.013 11.127,3.034 17.083,3.034c1.223,0 2.486,-0.041 4.053,-0.131c2.35,3.55 7.132,5.823 12.32,5.823c2.132,0 4.177,-0.364 6.082,-1.083c0.256,-0.097 0.429,-0.341 0.433,-0.614c0.006,-0.275 -0.157,-0.524 -0.411,-0.629zM41.726,41.057v-1.06c0,-0.371 -0.3,-0.67 -0.669,-0.67c-0.37,0 -0.67,0.299 -0.67,0.67v1.06c0,0.37 0.3,0.67 0.67,0.67c0.369,0 0.669,-0.3 0.669,-0.67zM43.906,41.727c0.37,0 0.67,-0.3 0.67,-0.67v-1.06c0,-0.371 -0.3,-0.67 -0.67,-0.67c-0.37,0 -0.669,0.299 -0.669,0.67v1.06c-0.001,0.37 0.299,0.67 0.669,0.67zM46.755,41.727c0.37,0 0.67,-0.3 0.67,-0.67v-1.06c0,-0.371 -0.3,-0.67 -0.67,-0.67c-0.37,0 -0.67,0.299 -0.67,0.67v1.06c0,0.37 0.3,0.67 0.67,0.67zM49.604,41.727c0.37,0 0.67,-0.3 0.67,-0.67v-1.06c0,-0.371 -0.3,-0.67 -0.67,-0.67c-0.37,0 -0.67,0.299 -0.67,0.67v1.06c0,0.37 0.3,0.67 0.67,0.67zM52.454,41.727c0.37,0 0.67,-0.3 0.67,-0.67v-1.06c0,-0.371 -0.3,-0.67 -0.67,-0.67c-0.37,0 -0.67,0.299 -0.67,0.67v1.06c0,0.37 0.3,0.67 0.67,0.67zM43.236,45.656c0,0.37 0.3,0.67 0.669,0.67c0.37,0 0.67,-0.3 0.67,-0.67v-1.061c0,-0.37 -0.3,-0.67 -0.67,-0.67c-0.37,0 -0.669,0.3 -0.669,0.67zM46.085,45.656c0,0.37 0.3,0.67 0.67,0.67c0.37,0 0.67,-0.3 0.67,-0.67v-1.061c0,-0.37 -0.3,-0.67 -0.67,-0.67c-0.37,0 -0.67,0.3 -0.67,0.67zM48.934,45.656c0,0.37 0.3,0.67 0.67,0.67c0.37,0 0.67,-0.3 0.67,-0.67v-1.061c0,-0.37 -0.3,-0.67 -0.67,-0.67c-0.37,0 -0.67,0.3 -0.67,0.67zM51.784,45.656c0,0.37 0.3,0.67 0.67,0.67c0.37,0 0.67,-0.3 0.67,-0.67v-1.061c0,-0.37 -0.3,-0.67 -0.67,-0.67c-0.37,0 -0.67,0.3 -0.67,0.67zM55.303,46.326c0.371,0 0.67,-0.3 0.67,-0.67v-1.061c0,-0.37 -0.299,-0.67 -0.67,-0.67c-0.37,0 -0.669,0.3 -0.669,0.67v1.061c0,0.37 0.299,0.67 0.669,0.67zM46.085,50.254c0,0.371 0.3,0.669 0.67,0.669c0.37,0 0.67,-0.299 0.67,-0.669v-1.06c0,-0.37 -0.3,-0.67 -0.67,-0.67c-0.37,0 -0.67,0.3 -0.67,0.67zM48.934,50.254c0,0.371 0.3,0.669 0.67,0.669c0.37,0 0.67,-0.299 0.67,-0.669v-1.06c0,-0.37 -0.3,-0.67 -0.67,-0.67c-0.37,0 -0.67,0.3 -0.67,0.67zM51.784,50.254c0,0.371 0.3,0.669 0.67,0.669c0.37,0 0.67,-0.299 0.67,-0.669v-1.06c0,-0.37 -0.3,-0.67 -0.67,-0.67c-0.37,0 -0.67,0.3 -0.67,0.67zM54.634,50.254c0,0.371 0.299,0.669 0.669,0.669c0.371,0 0.67,-0.299 0.67,-0.669v-1.06c0,-0.37 -0.299,-0.67 -0.67,-0.67c-0.37,0 -0.669,0.3 -0.669,0.67z" fill="#2ea7e0" class="fill c1"/></g><g transform="translate(16,186)translate(111.5,93.5)rotate(0)translate(-111.5,-93.5) scale(2.4777777777777774,2.4777777777777774)" opacity="1"><defs class="defs"/><path transform="translate(-5,-9)" d="M54,36v-27h-8v27h-41l16.1,48h57.7l16.2,-48zM73.2,76h-46.4l-10.8,-32h68z" fill="#191919" class="fill c1"/></g><g transform="translate(66,291)translate(26,30.5)rotate(0)translate(-26,-30.5) scale(0.09071876258344558,0.09071876258344558)" opacity="1"><defs class="defs"><linearGradient id="linearGradient_5_c1" class="linearGradient1" gradientTransform="translate(0.5,0.5) rotate(270) translate(-0.5,-0.5)" x1="50%" y1="0%" x2="50%" y2="100%"><stop id="stop1" offset="0%" class="linearGradientColor1" stop-color="#FFDD64"/><stop id="stop2" offset="100%" class="linearGradientColor2" stop-color="#FF8F00"/></linearGradient></defs><path transform="translate(-19,-94.59999999999998)" d="M305.6,765.6c-158,0 -286.6,-128.6 -286.6,-286.7c0,-158.1 128.6,-286.7 286.7,-286.7c9.1,0 16.5,7.4 16.5,16.5c0,9.1 -7.4,16.5 -16.5,16.5c-139.9,0.1 -253.7,113.9 -253.7,253.7c0,139.8 113.8,253.6 253.6,253.6c139.8,0 253.6,-113.8 253.6,-253.6c0,-93.1 -50.9,-178.6 -132.8,-223c-8,-4.4 -11,-14.4 -6.6,-22.4c4.4,-8 14.4,-11 22.4,-6.6c92.5,50.3 150,146.8 150,252c0.1,158.1 -128.5,286.7 -286.6,286.7zM315.6,309.4c-6.5,0 -13.2,-0.3 -19.9,-0.8c-8,-0.6 -14.4,-6.9 -15.1,-14.9c-0.3,-3.4 -7.2,-83.6 45.9,-141.8c34.6,-38 86,-57.3 152.7,-57.3h4.9c4.4,0.1 8.6,1.9 11.7,5.1c3.1,3.2 4.7,7.5 4.6,11.9c-0.2,1.9 -8,197.8 -184.8,197.8zM313.3,276.4c62.4,0.8 106.5,-26.7 132.6,-81.5c12.1,-25.4 17.4,-50.8 19.7,-67c-50.2,2.3 -88.7,17.8 -114.5,46c-31.4,34.2 -37.1,79.7 -37.8,102.5zM378.4,497.1c0,-11.10092 8.99908,-20.1 20.1,-20.1c11.10092,0 20.1,8.99908 20.1,20.1c0,11.10092 -8.99908,20.1 -20.1,20.1c-11.10092,0 -20.1,-8.99908 -20.1,-20.1zM458,469.3c0,-11.10092 8.99908,-20.1 20.1,-20.1c11.10092,0 20.1,8.99908 20.1,20.1c0,11.10092 -8.99908,20.1 -20.1,20.1c-11.10092,0 -20.1,-8.99908 -20.1,-20.1zM446.5,551.7c0,-11.10092 8.99908,-20.1 20.1,-20.1c11.10092,0 20.1,8.99908 20.1,20.1c0,11.10092 -8.99908,20.1 -20.1,20.1c-11.10092,0 -20.1,-8.99908 -20.1,-20.1z" fill="url(#linearGradient_5_c1)" class="fill c1"/></g><g transform="translate(115,280)translate(38.5,35.5)rotate(2.906300649315198)translate(-38.5,-35.5) scale(0.8555555555555557,0.8555555555555557)" opacity="1"><defs class="defs"/><path transform="translate(-5,-8.828999999999999)" d="M16.278,45.251c-0.227,-3.52 0.184,-7.083 1.624,-10.166c0.716,-1.548 1.786,-2.85 2.79,-4.167c1.041,-1.304 2.18,-2.556 3.61,-3.617l-0.054,-0.167c-0.943,0.074 -1.838,0.434 -2.647,0.897c-0.817,0.462 -1.554,1.052 -2.224,1.71c-1.356,1.322 -2.163,3.084 -2.782,4.812c-1.246,3.498 -1.255,7.255 -0.491,10.719zM23.01,48.18l0.175,-0.028c-0.296,-3.348 -0.149,-6.733 0.839,-9.835c0.488,-1.556 1.313,-2.938 2.034,-4.345c0.75,-1.407 1.617,-2.759 2.673,-4.106l-0.095,-0.15c-1.695,0.606 -3.039,1.889 -4.077,3.326c-1.057,1.454 -1.539,3.219 -1.902,4.92c-0.726,3.434 -0.476,6.94 0.353,10.218zM26.044,77.121c-1.803,1.318 -3.485,2.814 -5.332,4.111c-3.687,2.594 -7.621,4.863 -11.714,6.854l0.069,0.16c4.312,-1.492 8.471,-3.468 12.415,-5.832c1.964,-1.189 3.977,-2.361 5.685,-3.936c1.694,-1.564 3.314,-3.305 4.342,-5.427l-0.141,-0.108c-1.764,1.486 -3.529,2.83 -5.324,4.178zM37.629,38.317c0.985,3.102 1.136,6.487 0.838,9.835l0.174,0.028c0.831,-3.278 1.082,-6.784 0.353,-10.219c-0.363,-1.701 -0.843,-3.464 -1.899,-4.92c-1.038,-1.436 -2.382,-2.72 -4.078,-3.326l-0.093,0.15c1.054,1.347 1.922,2.7 2.672,4.106c0.722,1.409 1.546,2.79 2.033,4.346zM40.962,30.918c1.002,1.317 2.071,2.617 2.789,4.167c1.44,3.083 1.851,6.646 1.623,10.166l0.175,0.023c0.764,-3.465 0.756,-7.223 -0.492,-10.719c-0.62,-1.728 -1.425,-3.49 -2.781,-4.812c-0.67,-0.657 -1.408,-1.249 -2.225,-1.71c-0.808,-0.464 -1.703,-0.823 -2.646,-0.898l-0.054,0.167c1.429,1.06 2.569,2.312 3.611,3.616zM67.977,30.545c-0.116,5.578 4.056,7.875 6.936,8.858c2.228,-1.641 3.353,-5.905 2.24,-8.858c1.184,1.968 2.097,0 2.097,0c0,0 2.081,7.777 -1.476,9.892c2.859,1.035 9.045,1.411 13.941,0c-1.641,4.642 -10.497,5.856 -14.563,3.56c-2.829,6.245 -7.09,8.529 -13.323,3.832c5.579,2.849 7.22,-1.864 8.952,-5.8c-3.842,-1.642 -6.655,-9.188 -4.804,-11.484zM20.785,24.766c3.121,0 5.886,-0.519 7.097,-3.461c1.211,-2.941 2.358,-12.476 2.358,-12.476h1.172c0,0 1.145,9.533 2.357,12.476c1.212,2.943 3.977,3.461 7.098,3.461c3.809,0 11.079,2.943 11.079,11.252c0,8.311 -5.717,16.464 -21.119,16.464c-15.401,0 -21.121,-8.153 -21.121,-16.464c0.001,-8.309 7.271,-11.252 11.079,-11.252zM5,90.697c4.032,-4.952 4.032,-30.654 28.438,-19.748c3.265,26.488 -18.858,19.091 -28.438,19.748zM34.784,69.616c-8.954,-8.372 1.185,-11.556 4.186,-17.135c6.737,14.113 -2.644,13.795 -3.695,16.745c12.054,-4.788 11.826,6.778 14.325,11.11c-8.058,-1.538 -15.649,2.132 -14.816,-10.72zM71.318,83.037c-13.076,0 -23.678,-10.502 -23.678,-23.458c0,-11.321 8.097,-20.765 18.866,-22.971c0.813,2.25 2.26,4.656 4.16,6.093c-1.171,2.639 -2.144,4.229 -3.763,4.331c-1.466,0.093 -3.524,-0.362 -4.957,-0.723c0.681,4.019 5.759,5.685 7.954,5.685c3.236,0 5.938,-1.965 8.047,-5.847c1.272,0.422 2.762,0.646 4.339,0.646c2.56,0 5.341,-0.597 7.512,-1.861c3.246,4.016 5.202,9.102 5.202,14.649c-0.003,12.954 -10.604,23.456 -23.682,23.456zM38.475,73.01c-0.606,-0.783 -1.173,-1.586 -1.668,-2.525l-0.116,0.019c-0.137,1.117 0.271,2.216 0.809,3.164c0.546,0.967 1.413,1.692 2.274,2.344c0.869,0.653 1.828,1.171 2.827,1.556c1.007,0.365 2.059,0.583 3.098,0.672l0.022,-0.115c-2.023,-0.491 -3.88,-1.471 -5.342,-2.835c-0.738,-0.687 -1.287,-1.52 -1.904,-2.28zM37.232,65.514c0.517,-0.962 0.737,-2.043 0.995,-3.086c0.51,-2.094 0.789,-4.228 0.801,-6.363l-0.117,-0.008c-0.161,1.044 -0.397,2.077 -0.67,3.095c-0.257,1.02 -0.559,2.026 -0.916,3.009c-0.348,0.986 -0.837,1.909 -1.171,2.887c-0.338,0.984 -0.703,1.943 -0.995,3.009l0.098,0.066c0.845,-0.729 1.472,-1.644 1.975,-2.609z" fill="#41BC3F" class="fill c1"/></g></svg>